<svg xmlns="http://www.w3.org/2000/svg" xmlns:xlink="http://www.w3.org/1999/xlink" version="1.1" style="" xml:space="preserve" width="64" height="64"><rect id="backgroundrect" width="100%" height="100%" x="0" y="0" fill="none" stroke="none" class="" style=""/>
<style type="text/css">
	.st0{fill:#0460A9;}
	.st1{fill:url(#XMLID_00000040554335819831668590000006667181197121757832_);}
</style>


<g class="currentLayer" style=""><title>Layer 1</title><g id="svg_2" class="">
	
		<linearGradient id="XMLID_00000127013790300756791910000007310068183575529377_" gradientUnits="userSpaceOnUse" x1="37.8223991394043" y1="66.13619995117188" x2="75.6448974609375" y2="66.13619995117188" transform="translate(-3.2608695030212402,0) translate(-21.7391300201416,-30.434782028198242) ">
		<stop offset="0.3" style="stop-color:#E74A21"/>
		<stop offset="0.7011" style="stop-color:#EC9A1E"/>
	</linearGradient>
	
		<path id="XMLID_00000098197039953327840740000000483467928132857491_" style="fill:url(#XMLID_00000127013790300756791910000007310068183575529377_);" d="M38.94230047683716,31.374517971801758 l-0.1078,0.2702 c1.7738,0.778 5.7415,3.8664 5.7415,10.0773 c0,5.848 -4.934,11.749600000000001 -12.6835,11.749600000000001 c-9.6475,0 -12.9722,-5.6362000000000005 -12.9722,-10.8177 c0,-6.6373 4.6415,-11.0622 4.6415,-17.1075 c0,-4.2094000000000005 -3.1843,-8.3647 -7.4473,-9.1201 l-0.16160000000000005,0.2702 c1.78,1.8883 2.3739,3.7237 2.3739,5.6667000000000005 c0,6.5295 -5.5043,11.1705 -5.5043,18.6715 c0,6.9085 4.8309,13.9419 18.8012,13.9419 c12.4533,0 19.0213,-6.0962 19.0213,-12.5924 C50.644900476837165,36.826217971801746 46.65040047683716,32.11601797180176 38.94230047683716,31.374517971801758 z"/>
	<polygon id="XMLID_00000018939452969838917230000011839165213004269722_" class="st0" points="31.786097049713135,45.67621612548828 35.29400110244751,12.270917892456055 27.954601764678955,12.270917892456055 31.46250009536743,45.67621612548828 "/>
</g></g></svg>