<?xml version="1.0" encoding="utf-8"?>
<!-- Generator: Adobe Illustrator 27.6.1, SVG Export Plug-In . SVG Version: 6.00 Build 0)  -->
<svg version="1.1" xmlns="http://www.w3.org/2000/svg" xmlns:xlink="http://www.w3.org/1999/xlink" x="0px" y="0px"
	 viewBox="0 0 120 120" style="enable-background:new 0 0 120 120;" xml:space="preserve">
<style type="text/css">
	.st0{fill:#002068;}
</style>
<g id="Icon">
	<path class="st0" d="M74.7598,97.25H45.2314c-7.3062,0-13.25-5.9443-13.25-13.25V36c0-7.3062,5.9438-13.25,13.25-13.25h23.5371
		c0.001,0,0.001,0,0.002,0c0.3438,0.0005,0.6543,0.1396,0.8799,0.3643c0,0.0005,0.001,0.0005,0.001,0.0005
		c0,0.0005,0,0.0005,0.001,0.001c0,0,0,0,0,0.0005l17.9912,17.9907c0.0029,0.001,0.001,0.002,0.002,0.0015
		c0.2246,0.2256,0.3633,0.5366,0.3643,0.8804c0,0.0005,0,0.0015,0,0.002V84C88.0098,91.3057,82.0654,97.25,74.7598,97.25z
		 M45.2314,25.25c-5.9277,0-10.75,4.8223-10.75,10.75v48c0,5.9277,4.8223,10.75,10.75,10.75h29.5283
		c5.9277,0,10.75-4.8223,10.75-10.75V43.2407h-4.7412c-7.3057,0-13.25-5.9438-13.25-13.25V25.25H45.2314z M70.0186,27.0176v2.9731
		c0,5.9277,4.8223,10.75,10.75,10.75h2.9736L70.0186,27.0176z M74.7598,85.2549H45.2314c-0.6904,0-1.25-0.5596-1.25-1.25
		s0.5596-1.25,1.25-1.25h29.5283c0.6904,0,1.25,0.5596,1.25,1.25S75.4502,85.2549,74.7598,85.2549z M74.7598,73.2549H45.2314
		c-0.6904,0-1.25-0.5596-1.25-1.25s0.5596-1.25,1.25-1.25h29.5283c0.6904,0,1.25,0.5596,1.25,1.25S75.4502,73.2549,74.7598,73.2549z
		 M74.7598,61.2549H45.2314c-0.6904,0-1.25-0.5601-1.25-1.2505s0.5596-1.25,1.25-1.25h29.5283c0.6904,0,1.25,0.5596,1.25,1.25
		S75.4502,61.2549,74.7598,61.2549z M74.7598,49.2544H45.2314c-0.6904,0-1.25-0.5596-1.25-1.25s0.5596-1.25,1.25-1.25h29.5283
		c0.6904,0,1.25,0.5596,1.25,1.25S75.4502,49.2544,74.7598,49.2544z M63.2314,37.2544h-18c-0.6904,0-1.25-0.5596-1.25-1.25
		s0.5596-1.25,1.25-1.25h18c0.6904,0,1.25,0.5596,1.25,1.25S63.9219,37.2544,63.2314,37.2544z"/>
</g>
<g id="Guides">
</g>
</svg>
